<svg xmlns="http://www.w3.org/2000/svg" width="39" height="58" viewBox="0 0 39 58"><g transform="translate(-996 -530)"><path d="M23.472,3.986A.928.928,0,0,0,23.338,4H4v7.268a.928.928,0,0,0,0,.3v6.193a.928.928,0,0,0,0,.3v7.277H23.331a.928.928,0,0,0,.3,0H42.974V18.074a.928.928,0,0,0,0-.3V11.579a.928.928,0,0,0,0-.3V4H23.63A.928.928,0,0,0,23.472,3.986ZM5.855,5.855h16.7v4.64H5.855Zm18.559,0h16.7v4.64h-16.7Zm-18.559,6.5h16.7v4.64H5.855Zm18.559,0h16.7v4.64h-16.7Zm-18.559,6.5h16.7v4.64H5.855Zm18.559,0h16.7v4.64h-16.7Zm-12.992,8.9L7.055,32.11a.928.928,0,1,0,1.312,1.312l2.128-2.128V35.55a5.554,5.554,0,0,1-5.568,5.568.928.928,0,1,0,0,1.856,7.438,7.438,0,0,0,7.424-7.424V31.294l2.128,2.128a.928.928,0,1,0,1.312-1.312Zm12.064,0L19.118,32.11a.928.928,0,1,0,1.312,1.312l2.128-2.128V42.046a.928.928,0,1,0,1.856,0V31.294l2.128,2.128a.928.928,0,1,0,1.312-1.312Zm12.064,0L31.182,32.11a.928.928,0,1,0,1.312,1.312l2.128-2.128V35.55a7.438,7.438,0,0,0,7.424,7.424.928.928,0,1,0,0-1.856,5.554,5.554,0,0,1-5.568-5.568V31.294l2.128,2.128a.928.928,0,1,0,1.312-1.312Z" transform="translate(992.013 526.014)" fill="#38470b"/><text transform="translate(1017 585)" fill="#949c7c" font-size="10" font-family="NotoSansCJKtc-Regular, Noto Sans CJK TC"><tspan x="-10" y="0">空調</tspan></text></g></svg>