<svg xmlns="http://www.w3.org/2000/svg" width="37.914" height="58" viewBox="0 0 37.914 58"><g transform="translate(-617.043 -446.041)"><g transform="translate(617.043 446.041)"><path d="M37,2.094a3.041,3.041,0,0,0-.567.052,2.85,2.85,0,0,0-1.829,1.211c-.006.01-.019.016-.026.026L26.8,15.333a3.606,3.606,0,0,0-.9-.129,2.941,2.941,0,0,0-.386.052,4.022,4.022,0,0,0-7.444-.052,5.152,5.152,0,0,0-1.417.258,3.182,3.182,0,0,0-2.292-1.082,3.077,3.077,0,0,0-1.133.283,4.01,4.01,0,0,0-1.339-.283,4.066,4.066,0,0,0-3.967,3.451A4.066,4.066,0,0,0,4.473,21.8H2.747A.821.821,0,0,0,2,22.622V25.61C2,29.621,4.2,33.2,7.048,35.758s6.375,4.173,9.4,4.173h9.015c3.026,0,6.552-1.613,9.4-4.173s5.048-6.137,5.048-10.148V22.622a.826.826,0,0,0-.824-.824h-.953a3.413,3.413,0,0,0-1.571-1.906,3.25,3.25,0,0,0-2.833-2.962,4.39,4.39,0,0,0-1.236-1.7l6.7-8.6A2.851,2.851,0,0,0,38.6,2.583,2.705,2.705,0,0,0,37,2.094Zm-.026,1.623a1.2,1.2,0,0,1,.67.232A1.129,1.129,0,0,1,37.879,5.6L27.911,18.423a1.863,1.863,0,0,0-.979-.258h-.052L35.973,4.257a1.188,1.188,0,0,1,.773-.515A1.112,1.112,0,0,1,36.977,3.716ZM21.781,14.38A2.468,2.468,0,0,1,24.2,16.337l.18.876.85-.258a2.547,2.547,0,0,1,.567-.1l-1.314,2.035a.824.824,0,0,0,.953,1.211,7.879,7.879,0,0,1,1.494-.283,2.02,2.02,0,0,1,.9.232.822.822,0,0,0,1.056-.206l2.576-3.323a2.449,2.449,0,0,1,.953,1.365l.155.67.67-.052c.158-.006.18,0,.077,0a1.635,1.635,0,0,1,1.648,1.648c0-.077-.016-.039-.026.1l-.026.618.592.206a1.659,1.659,0,0,1,.876.721H22.605a.824.824,0,1,0-1.648,0H6.121a2.461,2.461,0,0,1,2.473-2.473h.824V18.5A2.486,2.486,0,0,1,12.9,16.234l.361.18.361-.18a1.609,1.609,0,0,1,.747-.206,1.64,1.64,0,0,1,1.391.747l.361.567.618-.232a3.726,3.726,0,0,1,1.339-.258,3.63,3.63,0,0,1,.412.026l.721.077.18-.7A2.466,2.466,0,0,1,21.781,14.38Zm0,1.648a.824.824,0,1,0,.824.824A.826.826,0,0,0,21.781,16.028Zm-9.066,1.648a.824.824,0,1,0,.824.824A.826.826,0,0,0,12.715,17.676Zm2.473,1.648a.824.824,0,1,0,.824.824A.826.826,0,0,0,15.187,19.325ZM3.648,23.446H38.265V25.61c0,3.406-1.887,6.581-4.482,8.912s-5.9,3.76-8.319,3.76H16.449c-2.415,0-5.724-1.429-8.319-3.76S3.648,29.016,3.648,25.61Z" transform="translate(-2 -2.094)" fill="#38470b"/></g><text transform="translate(635 501.041)" fill="#949c7c" font-size="10" font-family="NotoSansCJKtc-Regular, Noto Sans CJK TC"><tspan x="-10" y="0">早餐</tspan></text></g></svg>