<svg xmlns="http://www.w3.org/2000/svg" width="124.417" height="157.158" viewBox="0 0 124.417 157.158"><g transform="translate(-629 -209)"><g transform="translate(623 209)"><path d="M68.209,0A12.993,12.993,0,0,0,55.726,9.822h-39.9A9.875,9.875,0,0,0,6,19.645V147.336a9.875,9.875,0,0,0,9.822,9.822H120.595a9.875,9.875,0,0,0,9.822-9.822V19.645a9.875,9.875,0,0,0-9.822-9.822h-39.9A12.993,12.993,0,0,0,68.209,0Zm0,6.548A6.5,6.5,0,0,1,74.757,13.1a3.28,3.28,0,0,0,3.274,3.274h9.822v6.548H48.564V16.371h9.822A3.28,3.28,0,0,0,61.66,13.1,6.5,6.5,0,0,1,68.209,6.548ZM15.822,16.371H42.015v9.822a3.28,3.28,0,0,0,3.274,3.274H91.127A3.28,3.28,0,0,0,94.4,26.193V16.371h26.193a3.217,3.217,0,0,1,3.274,3.274V147.336a3.217,3.217,0,0,1-3.274,3.274H15.822a3.217,3.217,0,0,1-3.274-3.274V19.645A3.217,3.217,0,0,1,15.822,16.371Z" transform="translate(0)" fill="#fcffff"/></g><path d="M19.284,15.989a2.324,2.324,0,0,0-2.123,1.433,2.294,2.294,0,0,0,.528,2.508L32.12,34.36,17.69,48.79a2.293,2.293,0,1,0,3.243,3.243L35.363,37.6l14.43,14.43a2.293,2.293,0,1,0,3.243-3.243L38.605,34.36l14.43-14.43a2.293,2.293,0,1,0-3.243-3.243l-14.43,14.43-14.43-14.43A2.311,2.311,0,0,0,19.284,15.989Z" transform="translate(655.942 261.911)" fill="#fcffff"/></g></svg>