<svg xmlns="http://www.w3.org/2000/svg" width="29.279" height="58" viewBox="0 0 29.279 58"><g transform="translate(-621 -531)"><g transform="translate(0 1)"><g transform="translate(621 530)"><path d="M9.427,0A2.448,2.448,0,0,0,6.992,2.436V15.171a.832.832,0,0,0,0,.482V35.721a2.448,2.448,0,0,0,2.436,2.436v.812a1.635,1.635,0,0,0,1.624,1.624h2.436a1.635,1.635,0,0,0,1.624-1.624v-.812H28.1v.812a1.635,1.635,0,0,0,1.624,1.624h2.436a1.635,1.635,0,0,0,1.624-1.624v-.812a2.448,2.448,0,0,0,2.436-2.436V15.577a.825.825,0,0,0,0-.33V2.436A2.448,2.448,0,0,0,33.783,0Zm0,1.624H33.783a.8.8,0,0,1,.812.812V14.613H8.615V2.436A.8.8,0,0,1,9.427,1.624ZM12.6,4.846a.949.949,0,0,0-.1.025.813.813,0,0,0-.634.812v5.683a.812.812,0,1,0,1.624,0V5.683a.813.813,0,0,0-.888-.837ZM8.615,16.237H34.594V35.721a.8.8,0,0,1-.812.812H9.427a.8.8,0,0,1-.812-.812Zm3.983,2.41a.948.948,0,0,0-.1.025.813.813,0,0,0-.634.812v5.683a.812.812,0,1,0,1.624,0V19.484a.813.813,0,0,0-.888-.837Zm-1.548,19.51h2.436v.812H11.051Zm18.672,0h2.436v.812H29.723Z" transform="translate(-6.956)" fill="#38470b"/></g><text transform="translate(635 585)" fill="#949c7c" font-size="10" font-family="NotoSansCJKtc-Regular, Noto Sans CJK TC"><tspan x="-10" y="0">冰箱</tspan></text></g></g></svg>