<svg xmlns="http://www.w3.org/2000/svg" width="37.24" height="58" viewBox="0 0 37.24 58"><g transform="translate(-1091 -443)"><g transform="translate(1091 443)"><path d="M5.429,0A2.442,2.442,0,0,0,3,2.429V8.905a19.157,19.157,0,0,0,.43,3.9A20.778,20.778,0,0,1,3.81,17a10.108,10.108,0,0,1-.379,3.314A9.876,9.876,0,0,0,3,23.477v7.286a2.442,2.442,0,0,0,2.429,2.429H9.477V34a6.489,6.489,0,0,0,6.477,6.477h.81A6.489,6.489,0,0,0,23.239,34v-.81H35.383a2.178,2.178,0,0,0,1.594-.835,7.8,7.8,0,0,0,1.518-2.606c.958-2.473,1.746-6.616,1.746-13.56S39.465,5.329,38.494,3.036,36.319,0,35.383,0H19.191a2.442,2.442,0,0,0-2.429,2.429V30.763a2.442,2.442,0,0,0,2.429,2.429H21.62V34a4.847,4.847,0,0,1-4.857,4.857h-.81A4.847,4.847,0,0,1,11.1,34v-.81h2.429a2.442,2.442,0,0,0,2.429-2.429V23.477a9.876,9.876,0,0,0-.43-3.162A10.108,10.108,0,0,1,15.143,17a20.778,20.778,0,0,1,.379-4.2,19.157,19.157,0,0,0,.43-3.9V2.429A2.442,2.442,0,0,0,13.524,0Zm0,1.619h8.1a.8.8,0,0,1,.81.81V8.905a17.571,17.571,0,0,1-.379,3.592,22.84,22.84,0,0,0-.43,4.5,12.486,12.486,0,0,0,.43,3.77,7.455,7.455,0,0,1,.379,2.707v7.286a.8.8,0,0,1-.81.81H10.438a.823.823,0,0,0-.329,0H5.429a.8.8,0,0,1-.81-.81V23.477A7.455,7.455,0,0,1,5,20.77,12.486,12.486,0,0,0,5.429,17,22.84,22.84,0,0,0,5,12.5a17.571,17.571,0,0,1-.379-3.592V2.429A.8.8,0,0,1,5.429,1.619Zm13.763,0H35.383c-.041,0,.791.066,1.619,2.024s1.619,5.73,1.619,12.548-.8,10.771-1.644,12.953a6.377,6.377,0,0,1-1.164,2.075,1.643,1.643,0,0,1-.481.354H19.191a.8.8,0,0,1-.81-.81V2.429A.8.8,0,0,1,19.191,1.619Zm3.086,2.429a.81.81,0,0,0-.658.81v6.477a.811.811,0,0,0,.81.81H33.763a.811.811,0,0,0,.81-.81V4.857a.811.811,0,0,0-.81-.81H22.278Zm.961,1.619h9.715v4.857H23.239Zm-.81,8.1a.807.807,0,0,0-.81.81v1.619a.807.807,0,0,0,.81.81h1.619a.807.807,0,0,0,.81-.81V14.572a.807.807,0,0,0-.81-.81Zm4.857,0a.807.807,0,0,0-.81.81v1.619a.807.807,0,0,0,.81.81h1.619a.807.807,0,0,0,.81-.81V14.572a.807.807,0,0,0-.81-.81Zm4.857,0a.807.807,0,0,0-.81.81v1.619a.807.807,0,0,0,.81.81h1.619a.807.807,0,0,0,.81-.81V14.572a.807.807,0,0,0-.81-.81ZM22.43,18.62a.807.807,0,0,0-.81.81v1.619a.807.807,0,0,0,.81.81h1.619a.807.807,0,0,0,.81-.81V19.43a.807.807,0,0,0-.81-.81Zm4.857,0a.807.807,0,0,0-.81.81v1.619a.807.807,0,0,0,.81.81h1.619a.807.807,0,0,0,.81-.81V19.43a.807.807,0,0,0-.81-.81Zm4.857,0a.807.807,0,0,0-.81.81v1.619a.807.807,0,0,0,.81.81h1.619a.807.807,0,0,0,.81-.81V19.43a.807.807,0,0,0-.81-.81ZM22.43,23.477a.807.807,0,0,0-.81.81v1.619a.807.807,0,0,0,.81.81h1.619a.807.807,0,0,0,.81-.81V24.287a.807.807,0,0,0-.81-.81Zm4.857,0a.807.807,0,0,0-.81.81v1.619a.807.807,0,0,0,.81.81h1.619a.807.807,0,0,0,.81-.81V24.287a.807.807,0,0,0-.81-.81Zm4.857,0a.807.807,0,0,0-.81.81v1.619a.807.807,0,0,0,.81.81h1.619a.807.807,0,0,0,.81-.81V24.287a.807.807,0,0,0-.81-.81Z" transform="translate(-3)" fill="#38470b"/></g><text transform="translate(1111 498)" fill="#949c7c" font-size="10" font-family="NotoSansCJKtc-Regular, Noto Sans CJK TC"><tspan x="-10" y="0">電話</tspan></text></g></svg>