<svg xmlns="http://www.w3.org/2000/svg" width="42.591" height="58" viewBox="0 0 42.591 58"><g transform="translate(-709.705 -533.014)"><g transform="translate(709.705 533.014)"><path d="M11.892,12a8.45,8.45,0,0,0-8.449,8.422v1.946A4.532,4.532,0,0,0,.031,26.739a4.445,4.445,0,0,0,2.878,4.1l2.079,5.41.027.08h.027a3.651,3.651,0,0,0,.986,1.546L4.536,40.891A2.427,2.427,0,0,0,5.6,44.143,2.434,2.434,0,0,0,8.88,43.077l1.866-3.785H31.908l1.866,3.785a2.432,2.432,0,0,0,4.344-2.186L36.625,37.88a3.651,3.651,0,0,0,.986-1.546h.027l.027-.08,2.079-5.41a4.445,4.445,0,0,0,2.878-4.1,4.532,4.532,0,0,0-3.412-4.371V20.422A8.45,8.45,0,0,0,30.762,12Zm0,1.706h18.87A6.72,6.72,0,0,1,37.5,20.422v1.866a4.491,4.491,0,0,0-3.545,2.825h-.027l-1.386,3.172c-.113-.037-.18-.063-.32-.107-.643-.193-1.553-.446-2.639-.693a37.6,37.6,0,0,0-8.156-.986,38.854,38.854,0,0,0-8.262.986c-1.113.247-2.056.5-2.719.693-.15.043-.227.07-.346.107L8.8,25.353H8.773a4.487,4.487,0,0,0-3.625-3.065V20.422A6.72,6.72,0,0,1,11.892,13.706ZM4.536,23.94a2.769,2.769,0,0,1,2.665,2v.053l.027.053L8.88,29.7l.4.88.72-.453.08-.053c.013-.01,0,.017.027,0s.06-.01.107-.027c.17-.057.406-.147.72-.24.63-.183,1.539-.426,2.612-.666a37.491,37.491,0,0,1,7.889-.933,36.208,36.208,0,0,1,7.783.933c1.043.237,1.9.483,2.505.666.3.093.556.157.72.213a1.381,1.381,0,0,1,.16.08h.027l.746.453.4-.88,1.732-3.865v-.027l.027-.027a2.747,2.747,0,0,1,2.585-1.812,2.78,2.78,0,0,1,.746,5.464l-.426.107-.133.4-2.265,5.81v.027l-.027.027A2.434,2.434,0,0,1,34.2,37.347a5.109,5.109,0,0,1-1.439.24.865.865,0,0,0-.693,0H10.559a.85.85,0,0,0-.64,0,5.216,5.216,0,0,1-1.466-.24,2.434,2.434,0,0,1-1.812-1.573l-.027-.027v-.053L4.349,29.911l-.133-.4L3.789,29.4a2.763,2.763,0,0,1-2.052-2.665A2.794,2.794,0,0,1,4.536,23.94ZM7.494,38.786c.15.06.31.143.453.187a6.646,6.646,0,0,0,.959.213L7.334,42.3a.7.7,0,0,1-.64.4.71.71,0,0,1-.32-.08.7.7,0,0,1-.32-.959Zm27.665,0L36.6,41.664a.7.7,0,0,1-.32.959.71.71,0,0,1-.32.08.7.7,0,0,1-.64-.4l-1.573-3.118a6.647,6.647,0,0,0,.959-.213C34.85,38.929,35.01,38.846,35.159,38.786Z" transform="translate(-0.031 -12)" fill="#38470b"/></g><text transform="translate(731 588.014)" fill="#949c7c" font-size="10" font-family="NotoSansCJKtc-Regular, Noto Sans CJK TC"><tspan x="-10" y="0">沙發</tspan></text></g></svg>