<svg xmlns="http://www.w3.org/2000/svg" width="41.497" height="58" viewBox="0 0 41.497 58"><g transform="translate(-900.251 -449.453)"><g transform="translate(900.251 449.453)"><path d="M20.807,7A27.114,27.114,0,0,0,.66,16.4l-.6.669,4.6,5.55.6-.669A20.892,20.892,0,0,1,20.807,14.7,20.9,20.9,0,0,1,36.35,21.947l.6.669,4.6-5.55-.6-.669A27.114,27.114,0,0,0,20.807,7Zm0,1.924a25.348,25.348,0,0,1,18.341,8.263l-2.3,2.769a22.28,22.28,0,0,0-16.04-7.184,22.28,22.28,0,0,0-16.04,7.184l-2.3-2.769A25.348,25.348,0,0,1,20.807,8.924Zm0,9.619A17.816,17.816,0,0,0,7.568,24.72l-.6.665,4.624,5.572.6-.669a11.583,11.583,0,0,1,8.618-4.05,11.583,11.583,0,0,1,8.618,4.05l.6.669,4.624-5.572-.6-.665A17.828,17.828,0,0,0,20.807,18.543Zm0,1.924a16.062,16.062,0,0,1,11.435,5.039L29.922,28.3a12.957,12.957,0,0,0-9.115-3.983A12.957,12.957,0,0,0,11.692,28.3l-2.32-2.792A16.062,16.062,0,0,1,20.807,20.467Zm0,9.619a8.523,8.523,0,0,0-6.33,2.957l-.6.665,6.928,8.345.6-.721,6.33-7.624-.6-.665A8.523,8.523,0,0,0,20.807,30.085Zm0,1.924a6.75,6.75,0,0,1,4.471,1.882L20.807,39.28l-4.471-5.388A6.75,6.75,0,0,1,20.807,32.009Z" transform="translate(-0.059 -7)" fill="#38470b"/></g><text transform="translate(921 504.453)" fill="#949c7c" font-size="10" font-family="OpenSans, Open Sans"><tspan x="-8.853" y="0">Wifi</tspan></text></g></svg>